<svg width="404" height="64" viewBox="0 0 404 64" fill="none" xmlns="http://www.w3.org/2000/svg">
<path d="M0.69043 64H13.9619V44.0049H26.8379C40.1973 44.0049 49.1182 35.3916 49.1182 22.3398V22.252C49.1182 9.2002 40.1973 0.586914 26.8379 0.586914H0.69043V64ZM23.5859 11.0898C31.1885 11.0898 35.6709 15.0889 35.6709 22.2959V22.3838C35.6709 29.5908 31.1885 33.6338 23.5859 33.6338H13.9619V11.0898H23.5859ZM52.4141 64H66.3447L71.0469 48.6191H93.415L98.1172 64H112.092L90.0312 0.586914H74.4307L52.4141 64ZM81.8574 13.2432H82.6484L90.3828 38.6875H74.0791L81.8574 13.2432ZM133.098 64H146.369V40.3135L168.474 0.586914H154.104L140.173 27.2617H139.382L125.407 0.586914H111.037L133.098 40.3135V64ZM177.526 64H226.481V53.0576H193.786V52.2666L225.603 9.2002V0.586914H178.273V11.5293H209.431V12.3203L177.526 55.3428V64ZM240.104 64H282.116V53.0576H253.376V37.0176H280.49V26.8223H253.376V11.5293H282.116V0.586914H240.104V64ZM291.564 64H305.495L310.197 48.6191H332.565L337.268 64H351.242L329.182 0.586914H313.581L291.564 64ZM321.008 13.2432H321.799L329.533 38.6875H313.229L321.008 13.2432ZM362.009 64H403.493V53.0576H375.28V0.586914H362.009V64Z" fill="#404040"/>
</svg>
